<svg xmlns="http://www.w3.org/2000/svg" xmlns:xlink="http://www.w3.org/1999/xlink" width="1286pt" height="492pt" viewBox="0.00 0.00 1286.00 492.00">
<g id="graph0" class="graph" transform="scale(1 1) rotate(0) translate(4 487.78)">
<title>workflow</title>
<polygon fill="white" stroke="none" points="-4,4 -4,-487.78 1282.44,-487.78 1282.44,4 -4,4"/>
<g id="clust1" class="cluster">
<title>cluster_inputs</title>
<polygon fill="none" stroke="lightgrey" points="208.16,-263.78 208.16,-448.78 435.72,-448.78 435.72,-263.78 208.16,-263.78"/>
<text xml:space="preserve" text-anchor="middle" x="321.94" y="-432.18" font-family="Times,serif" font-size="14.00">Inputs</text>
</g>
<g id="clust2" class="cluster">
<title>cluster_frontend</title>
<polygon fill="none" stroke="lightgrey" points="455.72,-344.78 455.72,-475.78 616.4,-475.78 616.4,-344.78 455.72,-344.78"/>
<text xml:space="preserve" text-anchor="middle" x="536.06" y="-459.18" font-family="Times,serif" font-size="14.00">Frontend</text>
</g>
<g id="clust3" class="cluster">
<title>cluster_backend</title>
<polygon fill="none" stroke="lightgrey" points="466.6,-158.78 466.6,-235.78 763.66,-235.78 763.66,-158.78 466.6,-158.78"/>
<text xml:space="preserve" text-anchor="middle" x="615.13" y="-219.18" font-family="Times,serif" font-size="14.00">Backend</text>
</g>
<g id="clust4" class="cluster">
<title>cluster_utils</title>
<polygon fill="none" stroke="lightgrey" points="825.87,-67.78 825.87,-270.78 976.82,-270.78 976.82,-67.78 825.87,-67.78"/>
<text xml:space="preserve" text-anchor="middle" x="901.34" y="-254.18" font-family="Times,serif" font-size="14.00">Utils</text>
</g>
<g id="clust5" class="cluster">
<title>cluster_models</title>
<polygon fill="none" stroke="lightgrey" points="1011.81,-70.78 1011.81,-261.78 1270.44,-261.78 1270.44,-70.78 1011.81,-70.78"/>
<text xml:space="preserve" text-anchor="middle" x="1141.13" y="-245.18" font-family="Times,serif" font-size="14.00">Models</text>
</g>
<g id="clust6" class="cluster">
<title>cluster_batch</title>
<polygon fill="none" stroke="lightgrey" points="636.4,-244.78 636.4,-375.78 790.88,-375.78 790.88,-244.78 636.4,-244.78"/>
<text xml:space="preserve" text-anchor="middle" x="713.64" y="-359.18" font-family="Times,serif" font-size="14.00">Video Batch</text>
</g>
<g id="clust7" class="cluster">
<title>cluster_tests</title>
<polygon fill="none" stroke="lightgrey" points="8,-89.78 8,-220.78 188.16,-220.78 188.16,-89.78 8,-89.78"/>
<text xml:space="preserve" text-anchor="middle" x="98.08" y="-204.18" font-family="Times,serif" font-size="14.00">Tests</text>
</g>
<g id="clust8" class="cluster">
<title>cluster_logs</title>
<polygon fill="none" stroke="lightgrey" points="810.88,-344.78 810.88,-475.78 1223.42,-475.78 1223.42,-344.78 810.88,-344.78"/>
<text xml:space="preserve" text-anchor="middle" x="1017.15" y="-459.18" font-family="Times,serif" font-size="14.00">Logs &amp; Analysis</text>
</g>
<g id="clust9" class="cluster">
<title>cluster_repo</title>
<polygon fill="none" stroke="lightgrey" points="260.26,-70.78 260.26,-255.78 383.62,-255.78 383.62,-70.78 260.26,-70.78"/>
<text xml:space="preserve" text-anchor="middle" x="321.94" y="-239.18" font-family="Times,serif" font-size="14.00">Repo Files</text>
</g>
<!-- A1 -->
<g id="node1" class="node">
<title>A1</title>
<polygon fill="lightblue" stroke="black" points="371.72,-415.78 272.16,-415.78 272.16,-379.78 371.72,-379.78 371.72,-415.78"/>
<text xml:space="preserve" text-anchor="middle" x="321.94" y="-393.58" font-family="Times,serif" font-size="14.00">Webcam (live)</text>
</g>
<!-- F1 -->
<g id="node4" class="node">
<title>F1</title>
<polygon fill="lightgreen" stroke="black" points="608.4,-388.78 463.72,-388.78 463.72,-352.78 608.4,-352.78 608.4,-388.78"/>
<text xml:space="preserve" text-anchor="middle" x="536.06" y="-366.58" font-family="Times,serif" font-size="14.00">test_webcam_client.py</text>
</g>
<!-- A1&#45;&gt;F1 -->
<g id="edge1" class="edge">
<title>A1-&gt;F1</title>
<path fill="none" stroke="black" d="M372.14,-397.32C396.02,-395.16 425.36,-391.69 452.53,-387.88"/>
<polygon fill="black" stroke="black" points="452.72,-391.39 462.12,-386.51 451.72,-384.46 452.72,-391.39"/>
</g>
<!-- B0 -->
<g id="node6" class="node">
<title>B0</title>
<polygon fill="orange" stroke="black" points="597.53,-202.78 474.6,-202.78 474.6,-166.78 597.53,-166.78 597.53,-202.78"/>
<text xml:space="preserve" text-anchor="middle" x="536.06" y="-180.58" font-family="Times,serif" font-size="14.00">app.py (Flask API)</text>
</g>
<!-- A1&#45;&gt;B0 -->
<g id="edge2" class="edge">
<title>A1-&gt;B0</title>
<path fill="none" stroke="black" d="M372.08,-396.51C393.95,-393.52 418.58,-386.49 435.72,-370.78 456.44,-351.78 443.7,-336.19 455.72,-310.78 472.61,-275.09 497.58,-237.14 514.99,-212.33"/>
<polygon fill="black" stroke="black" points="517.67,-214.59 520.61,-204.41 511.97,-210.54 517.67,-214.59"/>
</g>
<!-- V2 -->
<g id="node15" class="node">
<title>V2</title>
<polygon fill="khaki" stroke="black" points="782.88,-342.78 644.4,-342.78 644.4,-306.78 782.88,-306.78 782.88,-342.78"/>
<text xml:space="preserve" text-anchor="middle" x="713.64" y="-320.58" font-family="Times,serif" font-size="14.00">test_yolo_webcam.py</text>
</g>
<!-- A1&#45;&gt;V2 -->
<g id="edge3" class="edge">
<title>A1-&gt;V2</title>
<path fill="none" stroke="black" d="M372.01,-394.05C393.11,-390.52 417.14,-383.73 435.72,-370.78 448.87,-361.61 441.84,-348.78 455.72,-340.78 509.05,-310.07 579.35,-307.77 632.93,-312.2"/>
<polygon fill="black" stroke="black" points="632.3,-315.65 642.59,-313.1 632.95,-308.68 632.3,-315.65"/>
</g>
<!-- A2 -->
<g id="node2" class="node">
<title>A2</title>
<polygon fill="lightblue" stroke="black" points="427.72,-361.78 216.16,-361.78 216.16,-325.78 427.72,-325.78 427.72,-361.78"/>
<text xml:space="preserve" text-anchor="middle" x="321.94" y="-339.58" font-family="Times,serif" font-size="14.00">Video file (videos/test_video.mp4)</text>
</g>
<!-- V1 -->
<g id="node14" class="node">
<title>V1</title>
<polygon fill="khaki" stroke="black" points="771.99,-288.78 655.29,-288.78 655.29,-252.78 771.99,-252.78 771.99,-288.78"/>
<text xml:space="preserve" text-anchor="middle" x="713.64" y="-266.58" font-family="Times,serif" font-size="14.00">video_analysis.py</text>
</g>
<!-- A2&#45;&gt;V1 -->
<g id="edge4" class="edge">
<title>A2-&gt;V1</title>
<path fill="none" stroke="black" d="M409.15,-325.31C418.21,-322.72 427.21,-319.88 435.72,-316.78 445.06,-313.38 446.23,-309.73 455.72,-306.78 517.63,-287.53 591.14,-278.55 643.64,-274.37"/>
<polygon fill="black" stroke="black" points="643.62,-277.88 653.33,-273.64 643.1,-270.9 643.62,-277.88"/>
</g>
<!-- A3 -->
<g id="node3" class="node">
<title>A3</title>
<polygon fill="lightblue" stroke="black" points="397.02,-307.78 246.86,-307.78 246.86,-271.78 397.02,-271.78 397.02,-307.78"/>
<text xml:space="preserve" text-anchor="middle" x="321.94" y="-285.58" font-family="Times,serif" font-size="14.00">HTTP Client / Frontend</text>
</g>
<!-- A3&#45;&gt;B0 -->
<g id="edge5" class="edge">
<title>A3-&gt;B0</title>
<path fill="none" stroke="black" d="M397.23,-274.41C410.38,-270.47 423.7,-265.64 435.72,-259.78 461.94,-247.01 488.11,-226.87 507.01,-210.67"/>
<polygon fill="black" stroke="black" points="509.31,-213.3 514.53,-204.08 504.7,-208.04 509.31,-213.3"/>
</g>
<!-- F1&#45;&gt;A1 -->
<g id="edge28" class="edge">
<title>F1-&gt;A1</title>
<path fill="none" stroke="black" d="M463.62,-373.45C437.54,-376.26 408.33,-380.06 383.31,-383.93"/>
<polygon fill="black" stroke="black" points="382.96,-380.45 373.63,-385.48 384.06,-387.36 382.96,-380.45"/>
</g>
<!-- F1&#45;&gt;B0 -->
<g id="edge6" class="edge">
<title>F1-&gt;B0</title>
<path fill="none" stroke="black" d="M536.06,-352.42C536.06,-306.39 536.06,-260.36 536.06,-214.33"/>
<polygon fill="black" stroke="black" points="539.56,-214.46 536.06,-204.46 532.56,-214.46 539.56,-214.46"/>
</g>
<!-- F2 -->
<g id="node5" class="node">
<title>F2</title>
<polygon fill="lightgreen" stroke="black" points="590.91,-442.78 481.21,-442.78 481.21,-406.78 590.91,-406.78 590.91,-442.78"/>
<text xml:space="preserve" text-anchor="middle" x="536.06" y="-420.58" font-family="Times,serif" font-size="14.00">streamlit_app.py</text>
</g>
<!-- N1 -->
<g id="node20" class="node">
<title>N1</title>
<polygon fill="lightcyan" stroke="black" points="983.81,-442.78 818.88,-442.78 818.88,-406.78 983.81,-406.78 983.81,-442.78"/>
<text xml:space="preserve" text-anchor="middle" x="901.34" y="-420.58" font-family="Times,serif" font-size="14.00">notebooks/notebook.ipynb</text>
</g>
<!-- F2&#45;&gt;N1 -->
<g id="edge7" class="edge">
<title>F2-&gt;N1</title>
<path fill="none" stroke="black" d="M591.06,-424.78C647.98,-424.78 738.71,-424.78 807.21,-424.78"/>
<polygon fill="black" stroke="black" points="806.92,-428.28 816.92,-424.78 806.92,-421.28 806.92,-428.28"/>
</g>
<!-- B0&#45;&gt;F1 -->
<g id="edge30" class="edge">
<title>B0-&gt;F1</title>
<path fill="none" stroke="black" d="M536.06,-202.94C536.06,-248.97 536.06,-295 536.06,-341.04"/>
<polygon fill="black" stroke="black" points="532.56,-340.91 536.06,-350.91 539.56,-340.91 532.56,-340.91"/>
</g>
<!-- B1 -->
<g id="node7" class="node">
<title>B1</title>
<polygon fill="orange" stroke="black" points="755.66,-202.78 671.62,-202.78 671.62,-166.78 755.66,-166.78 755.66,-202.78"/>
<text xml:space="preserve" text-anchor="middle" x="713.64" y="-180.58" font-family="Times,serif" font-size="14.00">predictor.py</text>
</g>
<!-- B0&#45;&gt;B1 -->
<g id="edge8" class="edge">
<title>B0-&gt;B1</title>
<path fill="none" stroke="black" d="M597.98,-178.32C618.09,-177.87 640.28,-177.94 659.73,-178.53"/>
<polygon fill="black" stroke="black" points="659.51,-182.02 669.63,-178.89 659.77,-175.02 659.51,-182.02"/>
</g>
<!-- B1&#45;&gt;B0 -->
<g id="edge29" class="edge">
<title>B1-&gt;B0</title>
<path fill="none" stroke="black" d="M671.15,-190.61C652.65,-191.42 630.3,-191.69 609.2,-191.43"/>
<polygon fill="black" stroke="black" points="609.55,-187.94 599.49,-191.27 609.43,-194.94 609.55,-187.94"/>
</g>
<!-- U1 -->
<g id="node8" class="node">
<title>U1</title>
<polygon fill="yellow" stroke="black" points="962.98,-177.58 839.71,-177.58 839.71,-135.98 962.98,-135.98 962.98,-177.58"/>
<text xml:space="preserve" text-anchor="middle" x="901.34" y="-160.98" font-family="Times,serif" font-size="14.00">eye_drowsiness.py</text>
<text xml:space="preserve" text-anchor="middle" x="901.34" y="-144.18" font-family="Times,serif" font-size="14.00">(EyeStateDetector)</text>
</g>
<!-- B1&#45;&gt;U1 -->
<g id="edge9" class="edge">
<title>B1-&gt;U1</title>
<path fill="none" stroke="black" d="M755.85,-178.56C777.17,-175.35 803.8,-171.33 828.38,-167.63"/>
<polygon fill="black" stroke="black" points="828.63,-171.13 838,-166.18 827.59,-164.21 828.63,-171.13"/>
</g>
<!-- U2 -->
<g id="node9" class="node">
<title>U2</title>
<polygon fill="yellow" stroke="black" points="955.6,-117.58 847.09,-117.58 847.09,-75.98 955.6,-75.98 955.6,-117.58"/>
<text xml:space="preserve" text-anchor="middle" x="901.34" y="-100.98" font-family="Times,serif" font-size="14.00">head_pose.py</text>
<text xml:space="preserve" text-anchor="middle" x="901.34" y="-84.18" font-family="Times,serif" font-size="14.00">(get_head_pose)</text>
</g>
<!-- B1&#45;&gt;U2 -->
<g id="edge10" class="edge">
<title>B1-&gt;U2</title>
<path fill="none" stroke="black" d="M741.56,-166.37C760.38,-154.04 786.44,-138.07 810.88,-126.78 818.82,-123.11 827.35,-119.66 835.87,-116.5"/>
<polygon fill="black" stroke="black" points="836.95,-119.84 845.19,-113.18 834.59,-113.24 836.95,-119.84"/>
</g>
<!-- U3 -->
<g id="node10" class="node">
<title>U3</title>
<polygon fill="yellow" stroke="black" points="968.82,-237.58 833.87,-237.58 833.87,-195.98 968.82,-195.98 968.82,-237.58"/>
<text xml:space="preserve" text-anchor="middle" x="901.34" y="-220.98" font-family="Times,serif" font-size="14.00">focus_tracker.py</text>
<text xml:space="preserve" text-anchor="middle" x="901.34" y="-204.18" font-family="Times,serif" font-size="14.00">(FocusEventTracker)</text>
</g>
<!-- B1&#45;&gt;U3 -->
<g id="edge11" class="edge">
<title>B1-&gt;U3</title>
<path fill="none" stroke="black" d="M755.85,-191.88C775.51,-195.27 799.68,-199.43 822.6,-203.38"/>
<polygon fill="black" stroke="black" points="821.78,-206.79 832.23,-205.04 822.97,-199.89 821.78,-206.79"/>
</g>
<!-- M1 -->
<g id="node11" class="node">
<title>M1</title>
<polygon fill="lightpink" stroke="black" points="1219.29,-120.58 1062.96,-120.58 1062.96,-78.98 1219.29,-78.98 1219.29,-120.58"/>
<text xml:space="preserve" text-anchor="middle" x="1141.13" y="-103.98" font-family="Times,serif" font-size="14.00">drowsiness_model.dat</text>
<text xml:space="preserve" text-anchor="middle" x="1141.13" y="-87.18" font-family="Times,serif" font-size="14.00">(68-landmarks predictor)</text>
</g>
<!-- U1&#45;&gt;M1 -->
<g id="edge12" class="edge">
<title>U1-&gt;M1</title>
<path fill="none" stroke="black" d="M963.4,-141.58C979.16,-137.7 996.11,-133.55 1011.81,-129.78 1024.67,-126.69 1038.27,-123.47 1051.61,-120.32"/>
<polygon fill="black" stroke="black" points="1052.33,-123.75 1061.26,-118.06 1050.73,-116.94 1052.33,-123.75"/>
</g>
<!-- M2 -->
<g id="node12" class="node">
<title>M2</title>
<polygon fill="lightpink" stroke="black" points="1262.44,-174.78 1019.81,-174.78 1019.81,-138.78 1262.44,-138.78 1262.44,-174.78"/>
<text xml:space="preserve" text-anchor="middle" x="1141.13" y="-152.58" font-family="Times,serif" font-size="14.00">shape_predictor_68_face_landmarks.dat</text>
</g>
<!-- U1&#45;&gt;M2 -->
<g id="edge13" class="edge">
<title>U1-&gt;M2</title>
<path fill="none" stroke="black" d="M963.27,-156.78C977.22,-156.78 992.58,-156.78 1008.25,-156.78"/>
<polygon fill="black" stroke="black" points="1008.18,-160.28 1018.18,-156.78 1008.18,-153.28 1008.18,-160.28"/>
</g>
<!-- U2&#45;&gt;M2 -->
<g id="edge14" class="edge">
<title>U2-&gt;M2</title>
<path fill="none" stroke="black" d="M956.1,-113.98C973.76,-119.36 993.54,-125.11 1011.81,-129.78 1019.86,-131.84 1028.23,-133.85 1036.65,-135.8"/>
<polygon fill="black" stroke="black" points="1035.74,-139.19 1046.26,-137.99 1037.29,-132.36 1035.74,-139.19"/>
</g>
<!-- L1 -->
<g id="node18" class="node">
<title>L1</title>
<polygon fill="lightcyan" stroke="black" points="1201.43,-442.78 1080.83,-442.78 1080.83,-406.78 1201.43,-406.78 1201.43,-442.78"/>
<text xml:space="preserve" text-anchor="middle" x="1141.13" y="-420.58" font-family="Times,serif" font-size="14.00">logs/focus_log.csv</text>
</g>
<!-- U3&#45;&gt;L1 -->
<g id="edge20" class="edge">
<title>U3-&gt;L1</title>
<path fill="none" stroke="black" d="M917.3,-237.78C934.31,-262.04 962.48,-303.43 983.81,-340.78 997.81,-365.29 989.53,-380.46 1011.81,-397.78 1028.19,-410.51 1049.17,-417.6 1069.39,-421.45"/>
<polygon fill="black" stroke="black" points="1068.59,-424.86 1079.02,-423.03 1069.72,-417.96 1068.59,-424.86"/>
</g>
<!-- L2 -->
<g id="node19" class="node">
<title>L2</title>
<polygon fill="lightcyan" stroke="black" points="1215.42,-388.78 1066.83,-388.78 1066.83,-352.78 1215.42,-352.78 1215.42,-388.78"/>
<text xml:space="preserve" text-anchor="middle" x="1141.13" y="-366.58" font-family="Times,serif" font-size="14.00">logs/focus_timeline.csv</text>
</g>
<!-- U3&#45;&gt;L2 -->
<g id="edge21" class="edge">
<title>U3-&gt;L2</title>
<path fill="none" stroke="black" d="M934.91,-237.87C978.52,-266.11 1055.74,-316.13 1102.01,-346.09"/>
<polygon fill="black" stroke="black" points="1100.1,-349.02 1110.4,-351.52 1103.91,-343.15 1100.1,-349.02"/>
</g>
<!-- M3 -->
<g id="node13" class="node">
<title>M3</title>
<polygon fill="lightpink" stroke="black" points="1228.65,-228.78 1053.61,-228.78 1053.61,-192.78 1228.65,-192.78 1228.65,-228.78"/>
<text xml:space="preserve" text-anchor="middle" x="1141.13" y="-206.58" font-family="Times,serif" font-size="14.00">yolov8n.pt (YOLO weights)</text>
</g>
<!-- V1&#45;&gt;U1 -->
<g id="edge16" class="edge">
<title>V1-&gt;U1</title>
<path fill="none" stroke="black" d="M772.46,-253.44C779.23,-249.71 785.59,-245.2 790.88,-239.78 808.45,-221.75 792.75,-204.25 810.88,-186.78 816.27,-181.59 822.58,-177.29 829.32,-173.74"/>
<polygon fill="black" stroke="black" points="830.47,-177.07 838.07,-169.68 827.52,-170.71 830.47,-177.07"/>
</g>
<!-- V1&#45;&gt;U2 -->
<g id="edge17" class="edge">
<title>V1-&gt;U2</title>
<path fill="none" stroke="black" d="M772.32,-254.97C779.37,-250.98 785.85,-246 790.88,-239.78 822.94,-200.12 777.58,-165.42 810.88,-126.78 817.71,-118.85 826.7,-113.01 836.36,-108.71"/>
<polygon fill="black" stroke="black" points="837.52,-112.01 845.6,-105.16 835.01,-105.48 837.52,-112.01"/>
</g>
<!-- V1&#45;&gt;U3 -->
<g id="edge18" class="edge">
<title>V1-&gt;U3</title>
<path fill="none" stroke="black" d="M772.38,-253.99C788.28,-249.37 805.78,-244.28 822.61,-239.38"/>
<polygon fill="black" stroke="black" points="823.46,-242.78 832.09,-236.63 821.51,-236.06 823.46,-242.78"/>
</g>
<!-- V1&#45;&gt;L2 -->
<g id="edge19" class="edge">
<title>V1-&gt;L2</title>
<path fill="none" stroke="black" d="M772.47,-284.37C845.42,-301.52 971.47,-331.14 1055.32,-350.85"/>
<polygon fill="black" stroke="black" points="1054.34,-354.21 1064.88,-353.09 1055.95,-347.4 1054.34,-354.21"/>
</g>
<!-- V2&#45;&gt;M3 -->
<g id="edge15" class="edge">
<title>V2-&gt;M3</title>
<path fill="none" stroke="black" d="M783.31,-315.99C838.25,-308.01 916.9,-294.47 983.81,-274.78 1020.68,-263.93 1060.76,-247.42 1091.11,-233.88"/>
<polygon fill="black" stroke="black" points="1092.36,-237.16 1100.04,-229.86 1089.48,-230.78 1092.36,-237.16"/>
</g>
<!-- T1 -->
<g id="node16" class="node">
<title>T1</title>
<polygon fill="lightcoral" stroke="black" points="180.16,-133.78 16,-133.78 16,-97.78 180.16,-97.78 180.16,-133.78"/>
<text xml:space="preserve" text-anchor="middle" x="98.08" y="-111.58" font-family="Times,serif" font-size="14.00">test_drowsiness_model.py</text>
</g>
<!-- T1&#45;&gt;A1 -->
<g id="edge25" class="edge">
<title>T1-&gt;A1</title>
<path fill="none" stroke="black" d="M179.17,-134.1C182.48,-136.64 185.51,-139.52 188.16,-142.78 220.22,-182.26 174.94,-332.26 208.16,-370.78 221.18,-385.88 241.01,-393.34 260.43,-396.81"/>
<polygon fill="black" stroke="black" points="259.88,-400.26 270.27,-398.2 260.86,-393.33 259.88,-400.26"/>
</g>
<!-- T1&#45;&gt;M1 -->
<g id="edge24" class="edge">
<title>T1-&gt;M1</title>
<path fill="none" stroke="black" d="M114.64,-97.62C134.07,-76.44 169.48,-42.44 208.16,-27.78 344.16,23.78 389.62,-12.78 535.06,-12.78 535.06,-12.78 535.06,-12.78 714.64,-12.78 839.83,-12.78 981.63,-49.38 1065.81,-75.1"/>
<polygon fill="black" stroke="black" points="1064.77,-78.44 1075.35,-78.05 1066.83,-71.75 1064.77,-78.44"/>
</g>
<!-- T2 -->
<g id="node17" class="node">
<title>T2</title>
<polygon fill="lightcoral" stroke="black" points="157.59,-187.78 38.56,-187.78 38.56,-151.78 157.59,-151.78 157.59,-187.78"/>
<text xml:space="preserve" text-anchor="middle" x="98.08" y="-165.58" font-family="Times,serif" font-size="14.00">test_head_pose.py</text>
</g>
<!-- T2&#45;&gt;A1 -->
<g id="edge27" class="edge">
<title>T2-&gt;A1</title>
<path fill="none" stroke="black" d="M103.57,-188.08C114.33,-227.91 145.46,-322.69 208.16,-370.78 223.17,-382.3 242.36,-389 260.64,-392.86"/>
<polygon fill="black" stroke="black" points="259.91,-396.29 270.37,-394.65 261.17,-389.4 259.91,-396.29"/>
</g>
<!-- T2&#45;&gt;U2 -->
<g id="edge26" class="edge">
<title>T2-&gt;U2</title>
<path fill="none" stroke="black" d="M158.01,-161.13C169.21,-157.12 179.97,-151.27 188.16,-142.78 212.39,-117.63 180.49,-88.1 208.16,-66.78 304.75,7.69 682.69,-54.66 835.6,-83.78"/>
<polygon fill="black" stroke="black" points="834.69,-87.17 845.17,-85.62 836.01,-80.3 834.69,-87.17"/>
</g>
<!-- N1&#45;&gt;L1 -->
<g id="edge22" class="edge">
<title>N1-&gt;L1</title>
<path fill="none" stroke="black" d="M984.18,-424.78C1011.92,-424.78 1042.65,-424.78 1069.45,-424.78"/>
<polygon fill="black" stroke="black" points="1069.16,-428.28 1079.16,-424.78 1069.16,-421.28 1069.16,-428.28"/>
</g>
<!-- N1&#45;&gt;L2 -->
<g id="edge23" class="edge">
<title>N1-&gt;L2</title>
<path fill="none" stroke="black" d="M975.57,-406.35C987.66,-403.41 1000.08,-400.46 1011.81,-397.78 1025.87,-394.57 1040.83,-391.29 1055.38,-388.18"/>
<polygon fill="black" stroke="black" points="1055.88,-391.65 1064.93,-386.15 1054.42,-384.81 1055.88,-391.65"/>
</g>
<!-- R1 -->
<g id="node21" class="node">
<title>R1</title>
<polygon fill="white" stroke="black" points="370.19,-168.78 273.69,-168.78 273.69,-132.78 370.19,-132.78 370.19,-168.78"/>
<text xml:space="preserve" text-anchor="middle" x="321.94" y="-146.58" font-family="Times,serif" font-size="14.00">README.md</text>
</g>
<!-- R1&#45;&gt;B0 -->
<g id="edge31" class="edge">
<title>R1-&gt;B0</title>
<path fill="none" stroke="black" d="M370.54,-158.41C397.85,-162.79 432.68,-168.37 463.25,-173.27"/>
<polygon fill="black" stroke="black" points="462.37,-176.67 472.8,-174.8 463.48,-169.76 462.37,-176.67"/>
</g>
<!-- R2 -->
<g id="node22" class="node">
<title>R2</title>
<polygon fill="white" stroke="black" points="375.62,-114.78 268.26,-114.78 268.26,-78.78 375.62,-78.78 375.62,-114.78"/>
<text xml:space="preserve" text-anchor="middle" x="321.94" y="-92.58" font-family="Times,serif" font-size="14.00">requirements.txt</text>
</g>
<!-- R2&#45;&gt;B0 -->
<g id="edge34" class="edge">
<title>R2-&gt;B0</title>
<path fill="none" stroke="black" d="M375.96,-101.71C395.95,-105.48 418.09,-112.12 435.72,-123.78 448.18,-132.01 444.01,-141.52 455.72,-150.78 460.5,-154.55 465.76,-157.99 471.22,-161.09"/>
<polygon fill="black" stroke="black" points="469.41,-164.09 479.89,-165.63 472.65,-157.89 469.41,-164.09"/>
</g>
<!-- R2&#45;&gt;U1 -->
<g id="edge32" class="edge">
<title>R2-&gt;U1</title>
<path fill="none" stroke="black" d="M375.92,-102.39C400.24,-104.96 429.44,-108.03 455.72,-110.78 586.97,-124.49 740.03,-140.28 828.02,-149.34"/>
<polygon fill="black" stroke="black" points="827.4,-152.79 837.7,-150.34 828.11,-145.83 827.4,-152.79"/>
</g>
<!-- R2&#45;&gt;U2 -->
<g id="edge33" class="edge">
<title>R2-&gt;U2</title>
<path fill="none" stroke="black" d="M375.97,-96.78C482.03,-96.78 719.99,-96.78 835.27,-96.78"/>
<polygon fill="black" stroke="black" points="835.19,-100.28 845.19,-96.78 835.19,-93.28 835.19,-100.28"/>
</g>
<!-- R3 -->
<g id="node23" class="node">
<title>R3</title>
<polygon fill="white" stroke="black" points="356.96,-222.78 286.92,-222.78 286.92,-186.78 356.96,-186.78 356.96,-222.78"/>
<text xml:space="preserve" text-anchor="middle" x="321.94" y="-200.58" font-family="Times,serif" font-size="14.00">.gitignore</text>
</g>
</g>
</svg>